<svg xmlns="http://www.w3.org/2000/svg" viewBox="0 0 987.23 443.29"><defs><style>.cls-1{fill:#0038bb;}.cls-2{fill:#fe9898;}.cls-3{fill:#2479ff;}.cls-4{fill:#6fa7ff;}.cls-5{fill:#ffdf4d;}.cls-6{fill:#fff;}.cls-7{fill:#f2f2f2;}.cls-8{fill:none;stroke:#fff;}.cls-17,.cls-8{stroke-miterlimit:10;}.cls-17,.cls-9{fill:#343a40;}.cls-10{fill:#2cc997;}.cls-11{fill:#b8ffe7;}.cls-12{fill:#18b381;}.cls-13{fill:#59efc2;}.cls-14{fill:#a5b1b5;}.cls-15{fill:#fec7bd;}.cls-16{fill:#1b1e21;}.cls-17{stroke:#343a40;}.cls-18{fill:#61c997;}.cls-19{fill:#d9e0e2;}.cls-20{fill:#6f79ff;}</style></defs><g id="레이어_2" data-name="레이어 2"><g id="레이어_1-2" data-name="레이어 1"><ellipse id="타원_238" data-name="타원 238" class="cls-1" cx="493.62" cy="404.11" rx="493.62" ry="39.19"/><g id="그룹_585" data-name="그룹 585"><g id="그룹_527" data-name="그룹 527"><rect id="사각형_1307" data-name="사각형 1307" class="cls-2" x="408.84" width="431.76" height="233.05" rx="20.95"/><rect id="사각형_1308" data-name="사각형 1308" class="cls-3" x="427.31" y="13" width="394.83" height="207.05" rx="20.95"/><rect id="사각형_1309" data-name="사각형 1309" class="cls-4" x="433.48" y="16.97" width="382.48" height="199.11" rx="20.22"/><g id="그룹_500" data-name="그룹 500"><g id="그룹_499" data-name="그룹 499"><g id="그룹_496" data-name="그룹 496"><path id="패스_575" data-name="패스 575" class="cls-5" d="M558.15,55.41A1.82,1.82,0,0,1,557,52.17c.67-.55,16.84-13.53,44.29-21.36,25.31-7.21,65.27-11.07,111.9,11.48a1.83,1.83,0,1,1-1.56,3.31l0,0c-45.53-22-84.48-18.29-109.14-11.3-26.78,7.61-43,20.59-43.16,20.72A1.75,1.75,0,0,1,558.15,55.41Z"/></g><g id="그룹_498" data-name="그룹 498"><g id="그룹_497" data-name="그룹 497"><path id="패스_576" data-name="패스 576" class="cls-5" d="M722.23,49c-5.5-.64-12.73-.64-17.87.64l6.75-6.32,1.16-9.17C714.24,39.08,718.48,44.94,722.23,49Z"/></g></g></g></g><rect id="사각형_1310" data-name="사각형 1310" class="cls-2" x="448.34" y="28.26" width="27.62" height="30.6" rx="3.18"/><rect id="사각형_1311" data-name="사각형 1311" class="cls-5" x="479.7" y="47.74" width="16.87" height="18.69" rx="3.18"/><rect id="사각형_1312" data-name="사각형 1312" class="cls-5" x="784.29" y="183.54" width="16.87" height="18.69" rx="2.45"/><g id="그룹_508" data-name="그룹 508"><path id="패스_577" data-name="패스 577" class="cls-6" d="M732.81,192.07H725a1.07,1.07,0,0,0-1.07,1.08v7.27a1.07,1.07,0,0,0,1.07,1.07h7.8a1.07,1.07,0,0,0,1.07-1.07v-7.27A1.07,1.07,0,0,0,732.81,192.07Zm-.92,6.89a.65.65,0,0,1-.64.65h-4.68a.65.65,0,0,1-.65-.65h0V194.6a.65.65,0,0,1,.65-.64h4.68a.64.64,0,0,1,.64.64h0Z"/><g id="그룹_501" data-name="그룹 501"><rect id="사각형_1313" data-name="사각형 1313" class="cls-6" x="713.04" y="192.07" width="2.71" height="9.41" rx="1.04"/><rect id="사각형_1314" data-name="사각형 1314" class="cls-6" x="716.46" y="192.07" width="2.71" height="9.41" rx="1.04"/><rect id="사각형_1315" data-name="사각형 1315" class="cls-6" x="719.87" y="192.07" width="2.71" height="9.41" rx="1.04"/></g><g id="그룹_502" data-name="그룹 502"><rect id="사각형_1316" data-name="사각형 1316" class="cls-6" x="735.24" y="192.07" width="9.41" height="2.71" rx="1.04"/><rect id="사각형_1317" data-name="사각형 1317" class="cls-6" x="735.24" y="195.33" width="9.41" height="2.71" rx="1.04"/><rect id="사각형_1318" data-name="사각형 1318" class="cls-6" x="735.24" y="198.59" width="9.41" height="2.71" rx="1.04"/></g><g id="그룹_503" data-name="그룹 503"><rect id="사각형_1319" data-name="사각형 1319" class="cls-6" x="746.02" y="192.07" width="9.41" height="2.71" rx="1.04"/><rect id="사각형_1320" data-name="사각형 1320" class="cls-6" x="749.37" y="195.33" width="2.71" height="2.71" rx="0.56"/><rect id="사각형_1321" data-name="사각형 1321" class="cls-6" x="746.02" y="198.59" width="9.41" height="2.71" rx="1.04"/></g><g id="그룹_504" data-name="그룹 504"><rect id="사각형_1322" data-name="사각형 1322" class="cls-6" x="756.79" y="191.98" width="2.71" height="9.41" rx="1.04"/><rect id="사각형_1323" data-name="사각형 1323" class="cls-6" x="760.05" y="195.33" width="2.71" height="2.71" rx="0.56"/><rect id="사각형_1324" data-name="사각형 1324" class="cls-6" x="760.05" y="192.07" width="2.71" height="2.71" rx="0.56"/><rect id="사각형_1325" data-name="사각형 1325" class="cls-6" x="763.3" y="191.98" width="2.71" height="9.41" rx="1.04"/></g><g id="그룹_505" data-name="그룹 505"><rect id="사각형_1326" data-name="사각형 1326" class="cls-6" x="773.88" y="191.98" width="2.71" height="9.41" rx="1.04"/><rect id="사각형_1327" data-name="사각형 1327" class="cls-6" x="770.62" y="195.33" width="2.71" height="2.71" rx="0.56"/><rect id="사각형_1328" data-name="사각형 1328" class="cls-6" x="770.62" y="198.59" width="2.71" height="2.71" rx="0.56"/><rect id="사각형_1329" data-name="사각형 1329" class="cls-6" x="767.37" y="191.98" width="2.71" height="9.41" rx="1.04"/></g><g id="그룹_507" data-name="그룹 507"><path id="패스_578" data-name="패스 578" class="cls-6" d="M709.68,201.49h-6.5a.73.73,0,0,1-.71-.74v-6.43a.71.71,0,0,1,.68-.74.77.77,0,0,1,.52.2l6.5,6.43a.74.74,0,0,1,0,1A.78.78,0,0,1,709.68,201.49Z"/><g id="그룹_506" data-name="그룹 506"><path id="패스_579" data-name="패스 579" class="cls-6" d="M704.47,192.07H711a.73.73,0,0,1,.72.74v6.43a.7.7,0,0,1-.68.73.66.66,0,0,1-.52-.2L704,193.35a.75.75,0,0,1,.49-1.28Z"/></g></g></g><g id="그룹_510" data-name="그룹 510"><g id="그룹_509" data-name="그룹 509"><rect id="사각형_1330" data-name="사각형 1330" class="cls-5" x="449.74" y="187.99" width="6.03" height="8.72" rx="0.45" transform="matrix(0.02, -1, 1, 0.02, 250.94, 640.97)"/><rect id="사각형_1331" data-name="사각형 1331" class="cls-5" x="449.88" y="181.26" width="6.03" height="8.72" rx="0.45" transform="translate(257.81 634.52) rotate(-88.8)"/><rect id="사각형_1332" data-name="사각형 1332" class="cls-5" x="450.02" y="174.52" width="6.03" height="8.72" rx="0.45" transform="translate(264.67 628.06) rotate(-88.8)"/><rect id="사각형_1333" data-name="사각형 1333" class="cls-5" x="450.16" y="167.79" width="6.03" height="8.72" rx="0.45" transform="translate(271.54 621.61) rotate(-88.8)"/><rect id="사각형_1334" data-name="사각형 1334" class="cls-5" x="450.29" y="161.06" width="6.03" height="8.72" rx="0.45" transform="translate(278.41 615.16) rotate(-88.8)"/><rect id="사각형_1335" data-name="사각형 1335" class="cls-5" x="450.43" y="154.33" width="6.03" height="8.72" rx="0.45" transform="translate(285.27 608.71) rotate(-88.8)"/><rect id="사각형_1336" data-name="사각형 1336" class="cls-5" x="460.13" y="188.2" width="6.03" height="8.72" rx="0.45" transform="translate(260.9 651.56) rotate(-88.8)"/><rect id="사각형_1337" data-name="사각형 1337" class="cls-5" x="460.27" y="181.47" width="6.03" height="8.72" rx="0.45" transform="translate(267.76 645.11) rotate(-88.8)"/><rect id="사각형_1338" data-name="사각형 1338" class="cls-5" x="460.4" y="174.74" width="6.03" height="8.72" rx="0.45" transform="translate(274.63 638.66) rotate(-88.8)"/><rect id="사각형_1339" data-name="사각형 1339" class="cls-5" x="460.54" y="168.01" width="6.03" height="8.72" rx="0.45" transform="translate(281.49 632.2) rotate(-88.8)"/><rect id="사각형_1340" data-name="사각형 1340" class="cls-5" x="460.68" y="161.27" width="6.03" height="8.72" rx="0.45" transform="translate(288.36 625.75) rotate(-88.8)"/><rect id="사각형_1341" data-name="사각형 1341" class="cls-5" x="460.82" y="154.54" width="6.03" height="8.72" rx="0.45" transform="translate(295.23 619.3) rotate(-88.8)"/><rect id="사각형_1342" data-name="사각형 1342" class="cls-5" x="470.51" y="188.42" width="6.03" height="8.72" rx="0.45" transform="translate(270.85 662.15) rotate(-88.8)"/><rect id="사각형_1343" data-name="사각형 1343" class="cls-5" x="470.65" y="181.68" width="6.03" height="8.72" rx="0.45" transform="translate(277.72 655.7) rotate(-88.8)"/><rect id="사각형_1344" data-name="사각형 1344" class="cls-5" x="470.79" y="174.95" width="6.03" height="8.72" rx="0.45" transform="translate(284.58 649.25) rotate(-88.8)"/><rect id="사각형_1345" data-name="사각형 1345" class="cls-5" x="480.9" y="188.63" width="6.03" height="8.72" rx="0.45" transform="matrix(0.02, -1, 1, 0.02, 280.81, 672.75)"/><rect id="사각형_1346" data-name="사각형 1346" class="cls-5" x="481.04" y="181.9" width="6.03" height="8.72" rx="0.45" transform="translate(287.67 666.29) rotate(-88.8)"/><rect id="사각형_1347" data-name="사각형 1347" class="cls-5" x="481.18" y="175.17" width="6.03" height="8.72" rx="0.45" transform="translate(294.54 659.84) rotate(-88.8)"/><rect id="사각형_1348" data-name="사각형 1348" class="cls-5" x="481.31" y="168.43" width="6.03" height="8.72" rx="0.45" transform="translate(301.4 653.39) rotate(-88.8)"/><rect id="사각형_1349" data-name="사각형 1349" class="cls-5" x="481.45" y="161.7" width="6.03" height="8.72" rx="0.45" transform="translate(308.27 646.94) rotate(-88.8)"/><rect id="사각형_1350" data-name="사각형 1350" class="cls-5" x="481.59" y="154.97" width="6.03" height="8.72" rx="0.45" transform="translate(315.13 640.49) rotate(-88.8)"/><rect id="사각형_1351" data-name="사각형 1351" class="cls-5" x="491.28" y="188.84" width="6.03" height="8.72" rx="0.45" transform="translate(290.76 683.34) rotate(-88.8)"/><rect id="사각형_1352" data-name="사각형 1352" class="cls-5" x="491.42" y="182.11" width="6.03" height="8.72" rx="0.45" transform="translate(297.63 676.89) rotate(-88.8)"/><rect id="사각형_1353" data-name="사각형 1353" class="cls-5" x="491.56" y="175.38" width="6.03" height="8.72" rx="0.45" transform="translate(304.49 670.43) rotate(-88.8)"/><rect id="사각형_1354" data-name="사각형 1354" class="cls-5" x="491.7" y="168.65" width="6.03" height="8.72" rx="0.45" transform="matrix(0.02, -1, 1, 0.02, 311.36, 663.98)"/><rect id="사각형_1355" data-name="사각형 1355" class="cls-5" x="450.57" y="147.6" width="6.03" height="8.72" rx="0.45" transform="translate(292.14 602.26) rotate(-88.8)"/></g></g><g id="그룹_513" data-name="그룹 513"><g id="그룹_511" data-name="그룹 511"><path id="패스_580" data-name="패스 580" class="cls-7" d="M495.6,137.67H448.35V87.56a1.83,1.83,0,1,1,3.65,0h0V134h43.61a1.83,1.83,0,0,1,0,3.66h0Z"/></g><g id="그룹_512" data-name="그룹 512"><path id="패스_581" data-name="패스 581" class="cls-7" d="M456.11,131.05a1.8,1.8,0,0,1-.72-.16,1.69,1.69,0,0,1-.8-2.24h0L463,110.82a3.53,3.53,0,0,1,4.69-1.69,3.61,3.61,0,0,1,1.27,1l5.44,6.94a.16.16,0,0,0,.15.06.15.15,0,0,0,.14-.1l.44-1a3.52,3.52,0,0,1,4.62-1.86,3.85,3.85,0,0,1,.76.44l2.45,1.87a.17.17,0,0,0,.14,0,.2.2,0,0,0,.12-.08l7.16-12.7a1.68,1.68,0,1,1,2.92,1.65l-7.17,12.7a3.53,3.53,0,0,1-4.81,1.34c-.14-.08-.27-.17-.4-.26l-2.46-1.88a.14.14,0,0,0-.14,0,.14.14,0,0,0-.11.09l-.44,1a3.52,3.52,0,0,1-6,.79l-5.44-6.94a.19.19,0,0,0-.15-.07.17.17,0,0,0-.14.1l-8.43,17.83A1.68,1.68,0,0,1,456.11,131.05Z"/></g></g><rect id="사각형_1356" data-name="사각형 1356" class="cls-8" x="513.8" y="63.18" width="262.18" height="114.23" rx="5.24"/><g id="그룹_514" data-name="그룹 514"><line id="선_19" data-name="선 19" class="cls-8" x1="535.33" y1="63.18" x2="535.33" y2="177.4"/><line id="선_20" data-name="선 20" class="cls-8" x1="559.68" y1="63.18" x2="559.68" y2="177.4"/><line id="선_21" data-name="선 21" class="cls-8" x1="584.03" y1="63.18" x2="584.03" y2="177.4"/><line id="선_22" data-name="선 22" class="cls-8" x1="608.37" y1="63.18" x2="608.37" y2="177.4"/><line id="선_23" data-name="선 23" class="cls-8" x1="632.72" y1="63.18" x2="632.72" y2="177.4"/><line id="선_24" data-name="선 24" class="cls-8" x1="657.07" y1="63.18" x2="657.07" y2="177.4"/><line id="선_25" data-name="선 25" class="cls-8" x1="681.41" y1="63.18" x2="681.41" y2="177.4"/><line id="선_26" data-name="선 26" class="cls-8" x1="705.76" y1="63.18" x2="705.76" y2="177.4"/><line id="선_27" data-name="선 27" class="cls-8" x1="730.11" y1="63.18" x2="730.11" y2="177.4"/><line id="선_28" data-name="선 28" class="cls-8" x1="754.46" y1="63.18" x2="754.46" y2="177.4"/></g><g id="그룹_515" data-name="그룹 515"><line id="선_29" data-name="선 29" class="cls-8" x1="513.8" y1="86.71" x2="775.99" y2="86.71"/><line id="선_30" data-name="선 30" class="cls-8" x1="513.8" y1="108.94" x2="775.99" y2="108.94"/><line id="선_31" data-name="선 31" class="cls-8" x1="513.8" y1="131.18" x2="775.99" y2="131.18"/><line id="선_32" data-name="선 32" class="cls-8" x1="513.8" y1="153.41" x2="775.99" y2="153.41"/></g><g id="그룹_526" data-name="그룹 526"><g id="그룹_525" data-name="그룹 525"><g id="그룹_518" data-name="그룹 518"><g id="그룹_516" data-name="그룹 516"><rect id="사각형_1357" data-name="사각형 1357" class="cls-9" x="708.51" y="101.72" width="27.25" height="15.57" rx="3.41"/><path id="패스_582" data-name="패스 582" class="cls-9" d="M722.14,69.56a28.51,28.51,0,0,0-28.51,28.51h0c0,15.75,12.76,13.05,28.51,13.05s28.51,2.69,28.51-13.05a28.52,28.52,0,0,0-28.51-28.51ZM712,101.73a4.58,4.58,0,1,1,4.58-4.58h0a4.57,4.57,0,0,1-4.58,4.57Zm20.27,0a4.58,4.58,0,1,1,4.58-4.58h0a4.57,4.57,0,0,1-4.58,4.57Z"/></g><rect id="사각형_1358" data-name="사각형 1358" class="cls-9" x="719.36" y="112.72" width="5.55" height="45.34" rx="2.66"/><rect id="사각형_1359" data-name="사각형 1359" class="cls-9" x="701.72" y="122.18" width="40.83" height="5.55" rx="2.53"/><rect id="사각형_1360" data-name="사각형 1360" class="cls-9" x="701.72" y="132.61" width="40.83" height="5.55" rx="2.53"/><rect id="사각형_1361" data-name="사각형 1361" class="cls-9" x="701.72" y="143.05" width="40.83" height="5.55" rx="2.53"/><g id="그룹_517" data-name="그룹 517"><path id="패스_583" data-name="패스 583" class="cls-9" d="M715.58,166.42h-9.82a1,1,0,0,1-1-1h0v-.33a4.83,4.83,0,0,1,4.83-4.83h2.18a4.83,4.83,0,0,1,4.83,4.83v.33a1,1,0,0,1-1,1Z"/><path id="패스_584" data-name="패스 584" class="cls-9" d="M738.52,166.42H728.7a1,1,0,0,1-1-1v-.33a4.83,4.83,0,0,1,4.83-4.83h2.18a4.83,4.83,0,0,1,4.83,4.83v.33a1,1,0,0,1-1,1Z"/></g></g><g id="그룹_521" data-name="그룹 521"><g id="그룹_519" data-name="그룹 519"><rect id="사각형_1362" data-name="사각형 1362" class="cls-9" x="628.65" y="111.3" width="27.25" height="11.56" rx="2.94"/><path id="패스_585" data-name="패스 585" class="cls-9" d="M642.28,75.13a28.51,28.51,0,0,0-28.51,28.51h0c0,15.75,12.76,13,28.51,13s28.51,2.69,28.51-13a28.52,28.52,0,0,0-28.51-28.51Zm-10.14,34.74a4.58,4.58,0,1,1,4.58-4.58,4.58,4.58,0,0,1-4.58,4.58Zm20.27,0a4.58,4.58,0,1,1,4.58-4.58,4.58,4.58,0,0,1-4.58,4.58Z"/></g><rect id="사각형_1363" data-name="사각형 1363" class="cls-9" x="639.5" y="112.72" width="5.55" height="45.34" rx="2.66"/><rect id="사각형_1364" data-name="사각형 1364" class="cls-9" x="626.01" y="125.49" width="32.53" height="7.43" rx="2.61"/><rect id="사각형_1365" data-name="사각형 1365" class="cls-9" x="621.83" y="135.4" width="40.9" height="7.43" rx="2.93"/><rect id="사각형_1366" data-name="사각형 1366" class="cls-9" x="626.01" y="145.31" width="32.53" height="7.43" rx="2.61"/><g id="그룹_520" data-name="그룹 520"><path id="패스_586" data-name="패스 586" class="cls-9" d="M635.72,166.42h-9.83a1,1,0,0,1-1-1h0v-.33a4.83,4.83,0,0,1,4.83-4.83h2.18a4.83,4.83,0,0,1,4.83,4.83v.33a1,1,0,0,1-1,1Z"/><path id="패스_587" data-name="패스 587" class="cls-9" d="M658.66,166.42h-9.82a1,1,0,0,1-1-1v-.33a4.83,4.83,0,0,1,4.83-4.83h2.18a4.83,4.83,0,0,1,4.83,4.83v.33a1,1,0,0,1-1,1Z"/></g></g><g id="그룹_524" data-name="그룹 524"><g id="그룹_522" data-name="그룹 522"><rect id="사각형_1367" data-name="사각형 1367" class="cls-9" x="547.5" y="117.48" width="27.25" height="6.39" rx="2.18"/><path id="패스_588" data-name="패스 588" class="cls-9" d="M561.12,80a28.51,28.51,0,0,0-28.51,28.51h0c0,15.74,12.77,13,28.51,13s28.51,2.69,28.51-13A28.5,28.5,0,0,0,561.12,80ZM551,116.28a4.58,4.58,0,1,1,4.58-4.58,4.58,4.58,0,0,1-4.58,4.58Zm20.26,0a4.58,4.58,0,1,1,4.58-4.58,4.57,4.57,0,0,1-4.58,4.58Z"/></g><rect id="사각형_1368" data-name="사각형 1368" class="cls-9" x="558.35" y="112.72" width="5.55" height="45.34" rx="2.66"/><g id="그룹_523" data-name="그룹 523"><path id="패스_589" data-name="패스 589" class="cls-9" d="M554.57,166.42h-9.83a1,1,0,0,1-1-1h0v-.33a4.83,4.83,0,0,1,4.83-4.83h2.18a4.83,4.83,0,0,1,4.83,4.83v.33a1,1,0,0,1-1,1Z"/><path id="패스_590" data-name="패스 590" class="cls-9" d="M577.51,166.42h-9.83a1,1,0,0,1-1-1h0v-.33a4.83,4.83,0,0,1,4.83-4.83h2.18a4.83,4.83,0,0,1,4.83,4.83h0v.33a1,1,0,0,1-1,1Z"/></g><circle id="타원_263" data-name="타원 263" class="cls-9" cx="561.12" cy="140.77" r="18.59"/></g></g></g><circle id="타원_264" data-name="타원 264" class="cls-10" cx="749.64" cy="40.11" r="5.95"/><circle id="타원_265" data-name="타원 265" class="cls-10" cx="768.72" cy="49.65" r="8.03"/></g><g id="그룹_538" data-name="그룹 538"><g id="그룹_537" data-name="그룹 537"><rect id="사각형_1369" data-name="사각형 1369" class="cls-6" x="823.47" y="277.03" width="119.48" height="92.53" rx="10.97"/><path id="패스_591" data-name="패스 591" class="cls-11" d="M823.47,288.46v33.71a81.71,81.71,0,0,0,34,7.16c35.4,0,64.1-21,64.1-46.94a35.65,35.65,0,0,0-.43-5.36H834.9A11.43,11.43,0,0,0,823.47,288.46Z"/><circle id="타원_266" data-name="타원 266" class="cls-10" cx="853.68" cy="247.79" r="71.6"/><g id="그룹_531" data-name="그룹 531"><g id="그룹_528" data-name="그룹 528"><path id="패스_592" data-name="패스 592" d="M870.84,316.53a19.85,19.85,0,1,1,19.84-19.85A19.85,19.85,0,0,1,870.84,316.53Zm0-37.26a17.41,17.41,0,1,0,17.41,17.41A17.41,17.41,0,0,0,870.84,279.27Z"/></g><g id="그룹_529" data-name="그룹 529"><path id="패스_593" data-name="패스 593" d="M812.57,316.53a19.85,19.85,0,1,1,19.85-19.85A19.85,19.85,0,0,1,812.57,316.53Zm0-37.26A17.41,17.41,0,1,0,830,296.68,17.42,17.42,0,0,0,812.57,279.27Z"/></g><g id="그룹_530" data-name="그룹 530"><rect id="사각형_1370" data-name="사각형 1370" x="830.59" y="294.84" width="22.29" height="2.44"/></g></g><g id="그룹_533" data-name="그룹 533"><g id="그룹_532" data-name="그룹 532"><circle id="타원_267" data-name="타원 267" class="cls-6" cx="817.58" cy="296.06" r="4.11"/><circle id="타원_268" data-name="타원 268" class="cls-6" cx="868.41" cy="296.06" r="4.11"/></g><circle id="타원_269" data-name="타원 269" class="cls-12" cx="843" cy="303.02" r="3.66"/></g><circle id="타원_270" data-name="타원 270" class="cls-13" cx="825.95" cy="221.47" r="6.51"/><g id="그룹_534" data-name="그룹 534"><path id="사각형_1371" data-name="사각형 1371" class="cls-10" d="M853,374.71h9.5a17.15,17.15,0,0,1,17.15,17.15h0v2.07a3.56,3.56,0,0,1-3.57,3.56H839.39a3.56,3.56,0,0,1-3.57-3.56v-2.07A17.15,17.15,0,0,1,853,374.71Z"/><path id="사각형_1372" data-name="사각형 1372" class="cls-10" d="M903.94,374.71h9.51a17.15,17.15,0,0,1,17.14,17.15h0v2.07a3.56,3.56,0,0,1-3.56,3.56H890.36a3.56,3.56,0,0,1-3.56-3.56v-2.07A17.14,17.14,0,0,1,903.94,374.71Z"/></g><g id="그룹_536" data-name="그룹 536"><rect id="사각형_1373" data-name="사각형 1373" class="cls-14" x="862.58" y="321.39" width="46.1" height="6.5" transform="translate(-57.08 292.55) rotate(-18.18)"/><path id="패스_594" data-name="패스 594" class="cls-2" d="M860.63,332.77h0a4.41,4.41,0,0,1,2.6-5.48l13.26-5.09a4.39,4.39,0,0,1,5.68,2.53,1.59,1.59,0,0,1,.07.2l.44,1.34a4.38,4.38,0,0,1-2.8,5.54l-.21.07L866,335.63A4.4,4.4,0,0,1,860.63,332.77Z"/><circle id="타원_271" data-name="타원 271" class="cls-5" cx="906.04" cy="317.94" r="7.14"/><g id="그룹_535" data-name="그룹 535"><circle id="타원_272" data-name="타원 272" class="cls-9" cx="904.62" cy="315.31" r="0.53"/><circle id="타원_273" data-name="타원 273" class="cls-9" cx="906.45" cy="320.89" r="0.53"/></g></g><rect id="사각형_1374" data-name="사각형 1374" class="cls-9" x="795.56" y="313.08" width="57.68" height="65.36"/></g></g><g id="그룹_551" data-name="그룹 551"><g id="그룹_540" data-name="그룹 540"><g id="그룹_539" data-name="그룹 539"><path id="사각형_1375" data-name="사각형 1375" class="cls-2" d="M207.16,279.77l2.41,5.14h0L115.2,329.13a2.46,2.46,0,0,1-3.27-1.18l-.32-.68a2.46,2.46,0,0,1,1.18-3.27l94.37-44.23Z"/><circle id="타원_274" data-name="타원 274" class="cls-2" cx="208.38" cy="282.33" r="7.83"/></g><circle id="타원_275" data-name="타원 275" class="cls-15" cx="208.27" cy="279.56" r="2.08"/></g><g id="그룹_550" data-name="그룹 550"><g id="그룹_549" data-name="그룹 549"><rect id="사각형_1376" data-name="사각형 1376" class="cls-6" x="7.7" y="277.03" width="119.48" height="92.53" rx="10.97"/><path id="패스_595" data-name="패스 595" class="cls-11" d="M127.18,288.46v33.71a81.68,81.68,0,0,1-34,7.16c-35.4,0-64.1-21-64.1-46.94a35.65,35.65,0,0,1,.43-5.36h86.26A11.43,11.43,0,0,1,127.18,288.46Z"/><g id="그룹_547" data-name="그룹 547"><circle id="타원_276" data-name="타원 276" class="cls-10" cx="96.97" cy="247.79" r="71.6"/><g id="그룹_544" data-name="그룹 544"><g id="그룹_541" data-name="그룹 541"><path id="패스_596" data-name="패스 596" d="M89.64,278.42a19.85,19.85,0,1,1,27.3,6.5A19.85,19.85,0,0,1,89.64,278.42Zm2.07-1.28a17.41,17.41,0,1,0,5.71-23.95h0a17.43,17.43,0,0,0-5.7,23.95Z"/></g><g id="그룹_542" data-name="그룹 542"><path id="패스_597" data-name="패스 597" d="M139.26,247.89a19.85,19.85,0,1,1,27.31,6.5A19.86,19.86,0,0,1,139.26,247.89Zm2.08-1.28a17.41,17.41,0,1,0,5.7-24h0a17.42,17.42,0,0,0-5.7,24Z"/></g><g id="그룹_543" data-name="그룹 543"><rect id="사각형_1377" data-name="사각형 1377" x="119.85" y="251.02" width="22.29" height="2.44" transform="translate(-112.76 106.06) rotate(-31.61)"/></g></g><g id="그룹_546" data-name="그룹 546"><g id="그룹_545" data-name="그룹 545"><circle id="타원_277" data-name="타원 277" class="cls-6" cx="153.01" cy="237.16" r="4.11"/><circle id="타원_278" data-name="타원 278" class="cls-6" cx="109.72" cy="263.8" r="4.11"/></g><circle id="타원_279" data-name="타원 279" class="cls-12" cx="135.01" cy="256.41" r="3.66"/></g><circle id="타원_280" data-name="타원 280" class="cls-13" cx="106.8" cy="210.84" r="6.51"/></g><g id="그룹_548" data-name="그룹 548"><path id="사각형_1378" data-name="사각형 1378" class="cls-10" d="M111.26,397.49H74.6A3.56,3.56,0,0,1,71,393.93h0v-2.07a17.15,17.15,0,0,1,17.15-17.15h9.5a17.15,17.15,0,0,1,17.15,17.15v2.07a3.56,3.56,0,0,1-3.57,3.56Z"/><path id="사각형_1379" data-name="사각형 1379" class="cls-10" d="M60.29,397.49H23.62a3.56,3.56,0,0,1-3.56-3.56h0v-2.07A17.15,17.15,0,0,1,37.2,374.71h9.51a17.14,17.14,0,0,1,17.14,17.15v2.07a3.56,3.56,0,0,1-3.56,3.56Z"/></g></g></g></g><g id="그룹_556" data-name="그룹 556"><rect id="사각형_1380" data-name="사각형 1380" class="cls-3" x="668.68" y="273.28" width="12.64" height="46.23"/><rect id="사각형_1381" data-name="사각형 1381" class="cls-4" x="681.31" y="279.65" width="12.64" height="46.23"/><rect id="사각형_1382" data-name="사각형 1382" class="cls-2" x="693.95" y="286.01" width="12.64" height="46.23"/><rect id="사각형_1383" data-name="사각형 1383" class="cls-5" x="706.18" y="273.78" width="12.64" height="46.23"/><g id="그룹_555" data-name="그룹 555"><rect id="사각형_1384" data-name="사각형 1384" class="cls-16" x="580.82" y="305.1" width="33.72" height="10.43"/><rect id="사각형_1385" data-name="사각형 1385" class="cls-9" x="564.53" y="312.68" width="66.31" height="10.43" rx="2.53"/><rect id="사각형_1386" data-name="사각형 1386" class="cls-9" x="548.36" y="245.97" width="98.64" height="60.61" rx="4.32"/><rect id="사각형_1387" data-name="사각형 1387" class="cls-6" x="554.59" y="249.8" width="86.19" height="52.96" rx="3.77"/><g id="그룹_554" data-name="그룹 554"><g id="그룹_552" data-name="그룹 552"><path id="패스_598" data-name="패스 598" class="cls-17" d="M613.6,270.54a2.83,2.83,0,0,0-2.83-2.83H601.1a2.7,2.7,0,0,0,0,5.4h2.24v9.64a2.05,2.05,0,0,0,2,2.05h3.28V273.1h4.93Z"/><path id="패스_599" data-name="패스 599" class="cls-17" d="M627.69,270a2.23,2.23,0,0,0-2.18-2.29h-7.12a3.72,3.72,0,0,0-3.62,3.82v4.11h0v7.42a1.74,1.74,0,0,0,1.69,1.79H620v-6h7.72Zm-4.4,4.28h-2a1,1,0,0,1-.94-1h0a1,1,0,0,1,.94-1h1a1.05,1.05,0,0,1,1,1.09Z"/><path id="패스_600" data-name="패스 600" class="cls-17" d="M597.56,274.52V270A2,2,0,0,0,595.7,268h-7.13a3.56,3.56,0,0,0-3.38,3.72v8.75a4.24,4.24,0,0,0,4,4.42h8.36v-6.56a2.15,2.15,0,0,1-.88-2.9,2.11,2.11,0,0,1,.88-.87ZM590,273.28a1,1,0,0,1,.9-1h.94a1,1,0,0,1,1,1.09v.9h-1.93a1,1,0,0,1-.91-1Zm2.84,7.66h-1.94a1,1,0,0,1,0-2h.94a1,1,0,0,1,1,1.09Z"/></g><g id="그룹_553" data-name="그룹 553"><path id="사각형_1388" data-name="사각형 1388" class="cls-18" d="M572.58,267.61H573a4.9,4.9,0,0,1,4.89,4.9v4a1.27,1.27,0,0,1-1.27,1.27h-4a4.9,4.9,0,0,1-4.9-4.9v-.41A4.9,4.9,0,0,1,572.58,267.61Z"/><path id="사각형_1389" data-name="사각형 1389" class="cls-4" d="M576.19,273.15h2a4,4,0,0,1,4,4h0V283h-5.91a3.94,3.94,0,0,1-4-3.94v-2A4,4,0,0,1,576.19,273.15Z"/><path id="사각형_1390" data-name="사각형 1390" class="cls-4" d="M577.17,281.06h2.66V285h-.39a2.28,2.28,0,0,1-2.27-2.28h0v-1.61Z"/></g></g></g><rect id="사각형_1391" data-name="사각형 1391" class="cls-14" x="532.29" y="334.21" width="204.23" height="37.92"/><rect id="사각형_1392" data-name="사각형 1392" class="cls-19" x="508.02" y="367.25" width="252.79" height="18.85" rx="6.94"/><rect id="사각형_1393" data-name="사각형 1393" class="cls-19" x="502.24" y="319.51" width="264.35" height="18.68" rx="5.33"/></g><g id="그룹_574" data-name="그룹 574"><g id="그룹_559" data-name="그룹 559"><g id="그룹_557" data-name="그룹 557"><rect id="사각형_1394" data-name="사각형 1394" class="cls-18" x="255.96" y="340.73" width="24.3" height="64.8" rx="10.56"/><rect id="사각형_1395" data-name="사각형 1395" class="cls-5" x="255.96" y="298.65" width="24.3" height="64.8" rx="10.56"/><path id="사각형_1396" data-name="사각형 1396" class="cls-9" d="M262.88,386h10.46a15.71,15.71,0,0,1,15.71,15.72h0v.78a3,3,0,0,1-3,3h-35.8a3,3,0,0,1-3.05-3v-.78A15.72,15.72,0,0,1,262.88,386Z"/></g><g id="그룹_558" data-name="그룹 558"><rect id="사각형_1397" data-name="사각형 1397" class="cls-18" x="294.96" y="340.73" width="24.3" height="64.8" rx="10.56"/><rect id="사각형_1398" data-name="사각형 1398" class="cls-5" x="294.96" y="298.65" width="24.3" height="64.8" rx="10.56"/><path id="사각형_1399" data-name="사각형 1399" class="cls-9" d="M301.88,386h10.46a15.71,15.71,0,0,1,15.71,15.72h0v.78a3,3,0,0,1-3,3h-35.8a3,3,0,0,1-3-3v-.78A15.71,15.71,0,0,1,301.88,386Z"/></g></g><g id="그룹_567" data-name="그룹 567"><g id="그룹_560" data-name="그룹 560"><rect id="사각형_1400" data-name="사각형 1400" class="cls-2" x="307.75" y="159.8" width="26.67" height="84.85" rx="12.8"/></g><g id="그룹_561" data-name="그룹 561"><rect id="사각형_1401" data-name="사각형 1401" class="cls-2" x="240.81" y="159.8" width="26.67" height="84.85" rx="12.8"/></g><g id="그룹_562" data-name="그룹 562"><rect id="사각형_1402" data-name="사각형 1402" class="cls-5" x="273.71" y="197.76" width="29.5" height="31.49"/><path id="사각형_1403" data-name="사각형 1403" class="cls-9" d="M269.32,218.52H307.6a30,30,0,0,1,30,30v58.76a19.19,19.19,0,0,1-19.19,19.2H258.52a19.19,19.19,0,0,1-19.2-19.2h0V248.53A30,30,0,0,1,269.32,218.52Z"/></g><g id="그룹_564" data-name="그룹 564"><rect id="사각형_1404" data-name="사각형 1404" class="cls-18" x="240.44" y="66.9" width="23.4" height="106.62" rx="11.23"/><g id="그룹_563" data-name="그룹 563"><rect id="사각형_1405" data-name="사각형 1405" class="cls-4" x="224.7" y="41.44" width="33.76" height="8.67" rx="4.16" transform="translate(186.41 285.38) rotate(-87.76)"/><rect id="사각형_1406" data-name="사각형 1406" class="cls-20" x="255.18" y="53.25" width="26.62" height="8.67" rx="4.16" transform="translate(32.6 198.14) rotate(-42.89)"/><rect id="사각형_1407" data-name="사각형 1407" class="cls-20" x="235.58" y="39.17" width="33.76" height="8.67" rx="4.16" transform="translate(199.14 294.07) rotate(-87.76)"/><rect id="사각형_1408" data-name="사각형 1408" class="cls-4" x="246.25" y="42.28" width="33.76" height="8.67" rx="4.16" transform="translate(206.28 307.73) rotate(-87.76)"/><rect id="사각형_1409" data-name="사각형 1409" class="cls-14" x="236.09" y="43.39" width="32.11" height="32.11" rx="11.91" transform="translate(-5.1 28.86) rotate(-6.49)"/></g></g><g id="그룹_566" data-name="그룹 566"><rect id="사각형_1410" data-name="사각형 1410" class="cls-18" x="311.38" y="66.9" width="23.4" height="106.62" rx="11.23"/><g id="그룹_565" data-name="그룹 565"><rect id="사각형_1411" data-name="사각형 1411" class="cls-4" x="329.3" y="28.89" width="8.67" height="33.76" rx="4.16" transform="translate(-1.53 13.06) rotate(-2.24)"/><rect id="사각형_1412" data-name="사각형 1412" class="cls-20" x="302.4" y="44.27" width="8.67" height="26.62" rx="4.16" transform="translate(55.77 243.11) rotate(-47.11)"/><rect id="사각형_1413" data-name="사각형 1413" class="cls-20" x="318.42" y="26.62" width="8.67" height="33.76" rx="4.16" transform="translate(-1.45 12.64) rotate(-2.24)"/><rect id="사각형_1414" data-name="사각형 1414" class="cls-4" x="307.75" y="29.73" width="8.67" height="33.76" rx="4.16" transform="translate(-1.58 12.22) rotate(-2.24)"/><rect id="사각형_1415" data-name="사각형 1415" class="cls-14" x="307.04" y="43.39" width="32.11" height="32.11" rx="11.91" transform="translate(227.54 373.75) rotate(-83.51)"/></g></g></g><g id="그룹_570" data-name="그룹 570"><g id="그룹_569" data-name="그룹 569"><rect id="사각형_1416" data-name="사각형 1416" class="cls-4" x="198.78" y="120.21" width="177.66" height="44.28" rx="21.25"/><circle id="타원_281" data-name="타원 281" class="cls-19" cx="287.61" cy="142.35" r="69.92"/><circle id="타원_282" data-name="타원 282" class="cls-2" cx="287.61" cy="151.02" r="7.87"/><g id="그룹_568" data-name="그룹 568"><circle id="타원_283" data-name="타원 283" class="cls-14" cx="251.21" cy="161.97" r="15.87"/><circle id="타원_284" data-name="타원 284" class="cls-14" cx="324.01" cy="161.97" r="15.87"/></g></g></g><g id="그룹_573" data-name="그룹 573"><g id="그룹_571" data-name="그룹 571"><path id="패스_601" data-name="패스 601" class="cls-9" d="M266.32,149.23a7,7,0,0,1-7-7,1.91,1.91,0,1,1,3.82-.09.14.14,0,0,1,0,.09,3.19,3.19,0,1,0,6.37,0v0a1.91,1.91,0,0,1,3.82,0h0A7,7,0,0,1,266.32,149.23Z"/></g><g id="그룹_572" data-name="그룹 572"><path id="패스_602" data-name="패스 602" class="cls-9" d="M310.6,149.23a7,7,0,0,1-7-7,1.91,1.91,0,0,1,3.82,0h0a3.19,3.19,0,1,0,6.37,0v0a1.91,1.91,0,0,1,3.82,0h0A7,7,0,0,1,310.6,149.23Z"/></g></g></g><g id="그룹_584" data-name="그룹 584"><g id="그룹_575" data-name="그룹 575"><path id="패스_603" data-name="패스 603" class="cls-12" d="M376.44,286.68a6.1,6.1,0,0,1-5.54-3.55c-10.88-23.68-2.19-72.76-1.81-74.84a6.09,6.09,0,0,1,12,2.17c-2.36,13.11-6.81,50.82.9,67.58a6.11,6.11,0,0,1-3,8.09,6.17,6.17,0,0,1-2.54.55Z"/></g><g id="그룹_576" data-name="그룹 576"><path id="패스_604" data-name="패스 604" class="cls-12" d="M471.53,286.68a6.09,6.09,0,0,0,5.54-3.55c10.88-23.68,2.19-72.76,1.81-74.84a6.09,6.09,0,0,0-12,2.17c2.36,13.11,6.81,50.82-.89,67.58a6.09,6.09,0,0,0,5.53,8.64Z"/></g><g id="그룹_582" data-name="그룹 582"><rect id="사각형_1417" data-name="사각형 1417" class="cls-10" x="374.47" y="301.05" width="98.21" height="76.05" rx="9.02"/><path id="패스_605" data-name="패스 605" class="cls-12" d="M468.78,291.4a8.66,8.66,0,0,0-8.66-8.66H387a8.66,8.66,0,0,0-8.65,8.66h0v21a51.06,51.06,0,0,0,90.42.49Z"/><circle id="타원_285" data-name="타원 285" class="cls-10" cx="423.57" cy="274.93" r="58.85"/><g id="그룹_577" data-name="그룹 577"><circle id="타원_286" data-name="타원 286" class="cls-12" cx="423.57" cy="259.03" r="3.01"/></g><circle id="타원_287" data-name="타원 287" class="cls-13" cx="400.77" cy="234.08" r="5.35"/><g id="그룹_578" data-name="그룹 578"><path id="사각형_1418" data-name="사각형 1418" class="cls-10" d="M398.71,381.34h7.81a14.09,14.09,0,0,1,14.1,14.09h0v1.71a2.93,2.93,0,0,1-2.93,2.92H387.55a2.93,2.93,0,0,1-2.93-2.92v-1.71A14.09,14.09,0,0,1,398.71,381.34Z"/><path id="사각형_1419" data-name="사각형 1419" class="cls-10" d="M440.61,381.34h7.81a14.09,14.09,0,0,1,14.1,14.09h0v1.71a2.93,2.93,0,0,1-2.93,2.92H429.44a2.92,2.92,0,0,1-2.92-2.92v-1.71A14.09,14.09,0,0,1,440.61,381.34Z"/></g><g id="그룹_581" data-name="그룹 581"><g id="그룹_579" data-name="그룹 579"><path id="패스_606" data-name="패스 606" class="cls-6" d="M445.7,256.8a1.22,1.22,0,0,1-.32,0l-7-1.9a1.22,1.22,0,0,1-.11-2.32l7.49-2.79a1.22,1.22,0,1,1,.9,2.26l0,0-3.95,1.47,3.33.91a1.21,1.21,0,0,1,.86,1.49,1.22,1.22,0,0,1-1.18.9Z"/></g><g id="그룹_580" data-name="그룹 580"><path id="패스_607" data-name="패스 607" class="cls-6" d="M402.88,256.8a1.12,1.12,0,0,0,.32,0l7-1.9a1.22,1.22,0,0,0,.11-2.32l-7.5-2.79a1.2,1.2,0,0,0-1.56.71A1.22,1.22,0,0,0,402,252l3.95,1.47-3.33.91a1.22,1.22,0,0,0,.31,2.39Z"/></g></g></g><circle id="타원_288" data-name="타원 288" class="cls-12" cx="423.57" cy="353.06" r="4.49"/><g id="그룹_583" data-name="그룹 583"><circle id="타원_289" data-name="타원 289" class="cls-12" cx="375.72" cy="209.37" r="14.73"/><circle id="타원_290" data-name="타원 290" class="cls-12" cx="471.42" cy="209.37" r="14.73"/></g><path id="패스_608" data-name="패스 608" class="cls-6" d="M493.79,275.84a3.48,3.48,0,1,1-3.84,5.81h0c-1.6-1.06-3-6.17-3-6.17S492.19,274.78,493.79,275.84Z"/><path id="패스_609" data-name="패스 609" class="cls-6" d="M469.12,264a3.48,3.48,0,0,1-6.69,1.93c-.53-1.85,1.71-6.65,1.71-6.65S468.59,262.11,469.12,264Z"/><path id="패스_610" data-name="패스 610" class="cls-6" d="M386,285.82a3.49,3.49,0,0,1-6.91-.9c.26-1.91,4.23-5.42,4.23-5.42S386.25,283.92,386,285.82Z"/><path id="패스_611" data-name="패스 611" class="cls-6" d="M476,283.69a3.49,3.49,0,1,1-5.6,4.15h0c-1.14-1.54-.72-6.83-.72-6.83S474.85,282.15,476,283.69Z"/><path id="패스_612" data-name="패스 612" class="cls-6" d="M356.58,259.69a3.48,3.48,0,0,0,3.84,5.81c1.6-1.06,3-6.17,3-6.17S358.18,258.63,356.58,259.69Z"/><path id="패스_613" data-name="패스 613" class="cls-6" d="M389.83,265.27a3.49,3.49,0,0,0,5.6,4.15h0c1.15-1.55.73-6.83.73-6.83S391,263.72,389.83,265.27Z"/></g></g></g></g></svg>