<svg xmlns="http://www.w3.org/2000/svg" viewBox="0 0 1037 401.46"><defs><style>.cls-1{fill:#a5b1b5;}.cls-2{fill:#fff;}.cls-3{fill:#17946c;}.cls-4{fill:#2cc997;}</style></defs><g id="레이어_2" data-name="레이어 2"><g id="레이어_1-2" data-name="레이어 1"><path class="cls-1" d="M1031.34,244.42a5.65,5.65,0,0,0,5.66-5.65V160.59a5.65,5.65,0,0,0-5.66-5.65h-7.83v89.48Z"/><path class="cls-1" d="M1031.34,349.31a5.65,5.65,0,0,0,5.66-5.65V265.48a5.65,5.65,0,0,0-5.66-5.65h-7.83v89.48Z"/><path class="cls-2" d="M984.27,0h-945A39.24,39.24,0,0,0,0,39.24V401.46H42.42V91.86A36.18,36.18,0,0,1,78.61,55.68h866.3a36.18,36.18,0,0,1,36.18,36.18v309.6h42.42V39.24A39.24,39.24,0,0,0,984.27,0ZM546.84,40.72H476.68a8.37,8.37,0,0,1,0-16.74h70.16a8.37,8.37,0,1,1,0,16.74Z"/><path class="cls-3" d="M51.46,102.72A35.48,35.48,0,0,1,87,67.24H936.57a35.47,35.47,0,0,1,35.48,35.48V401.46h9V91.86a36.18,36.18,0,0,0-36.18-36.18H78.61A36.18,36.18,0,0,0,42.42,91.86v309.6h9Z"/><path class="cls-4" d="M972.05,102.72a35.47,35.47,0,0,0-35.48-35.48H87a35.48,35.48,0,0,0-35.49,35.48V401.46H972.05Z"/><path class="cls-1" d="M476.68,40.72h70.16a8.37,8.37,0,1,0,0-16.74H476.68a8.37,8.37,0,0,0,0,16.74Z"/></g></g></svg>