<svg xmlns="http://www.w3.org/2000/svg" viewBox="0 0 1078.67 217.33"><defs><style>.cls-1{fill:none;}.cls-2{fill:#fff;}.cls-3{fill:#17946c;}.cls-4{fill:#2cc997;}</style></defs><g id="레이어_2" data-name="레이어 2"><g id="레이어_1-2" data-name="레이어 1"><path class="cls-1" d="M1078.67,0h-28.45V178.09A39.24,39.24,0,0,1,1011,217.33H66a39.24,39.24,0,0,1-39.24-39.24V0H0"/><path class="cls-2" d="M1007.8,142.3a36.18,36.18,0,0,1-36.18,36.18H105.31A36.18,36.18,0,0,1,69.13,142.3V0H26.71V178.09A39.24,39.24,0,0,0,66,217.33h945a39.24,39.24,0,0,0,39.24-39.24V0H1007.8Z"/><path class="cls-3" d="M105.31,178.48H971.62a36.18,36.18,0,0,0,36.18-36.18V0h-9V131.44a35.49,35.49,0,0,1-35.48,35.49H113.65a35.49,35.49,0,0,1-35.48-35.49V0h-9V142.3A36.18,36.18,0,0,0,105.31,178.48Z"/><path class="cls-4" d="M78.17,131.44a35.49,35.49,0,0,0,35.48,35.49H963.28a35.49,35.49,0,0,0,35.48-35.49V0H78.17Z"/></g></g></svg>