<svg xmlns="http://www.w3.org/2000/svg" viewBox="0 0 417.06 312.19"><defs><style>.cls-1{fill:#343a40;}.cls-2{fill:#fff;}.cls-3{fill:#6fa7ff;}.cls-4{fill:#397eff;}.cls-5{fill:#2cc997;}.cls-6{fill:#18b381;}.cls-7{fill:#59efc2;}.cls-8{fill:#a5b1b5;}.cls-9{fill:#d9e0e2;}.cls-10{fill:#fe9898;}.cls-11{fill:#fe5454;}.cls-12{fill:#c73c3c;}.cls-13{fill:#fe4c4c;}</style></defs><g id="레이어_2" data-name="레이어 2"><g id="레이어_1-2" data-name="레이어 1"><rect class="cls-1" y="22.88" width="189" height="225.37" rx="7.59"/><path class="cls-2" d="M49.46,47H51a1.51,1.51,0,0,1,1.43,1l2.83,7.76c.4,1.17.76,2.41,1.14,3.63h.12c.41-1.22.74-2.46,1.15-3.63L60.45,48a1.52,1.52,0,0,1,1.44-1h1.56A1.52,1.52,0,0,1,65,48.53V64.24a1.52,1.52,0,0,1-1.52,1.52h-.38a1.52,1.52,0,0,1-1.52-1.52V57.93c0-1.78.28-4.39.45-6.16h-.1l-1.52,4.41-2.52,6.88a1.52,1.52,0,0,1-1.43,1h0a1.51,1.51,0,0,1-1.43-1l-2.55-6.89-1.49-4.41h-.1c.17,1.77.48,4.38.48,6.16v6.31a1.52,1.52,0,0,1-1.52,1.52h-.33a1.52,1.52,0,0,1-1.52-1.52V48.53A1.52,1.52,0,0,1,49.46,47Z"/><path class="cls-2" d="M72.6,58.58l-4.45-9.4A1.52,1.52,0,0,1,69.52,47h.56a1.53,1.53,0,0,1,1.41.94L73,51.57c.54,1.39,1,2.71,1.63,4.15h.1c.58-1.44,1.14-2.76,1.67-4.15L77.86,48A1.52,1.52,0,0,1,79.27,47h.47a1.52,1.52,0,0,1,1.38,2.17l-4.48,9.4a1.65,1.65,0,0,0-.14.65v5A1.52,1.52,0,0,1,75,65.76h-.71a1.52,1.52,0,0,1-1.52-1.52v-5A1.51,1.51,0,0,0,72.6,58.58Z"/><path class="cls-2" d="M91.57,47h.71a1.52,1.52,0,0,1,1.52,1.52V61.1a1.52,1.52,0,0,0,1.52,1.52h4.57a1.52,1.52,0,0,1,1.52,1.52v.1a1.52,1.52,0,0,1-1.52,1.52H91.57a1.52,1.52,0,0,1-1.52-1.52V48.53A1.52,1.52,0,0,1,91.57,47Z"/><path class="cls-2" d="M106.2,47h.7a1.53,1.53,0,0,1,1.53,1.52V64.24a1.53,1.53,0,0,1-1.53,1.52h-.7a1.53,1.53,0,0,1-1.53-1.52V48.53A1.53,1.53,0,0,1,106.2,47Z"/><path class="cls-2" d="M112.78,62.19l.24-.28a1.51,1.51,0,0,1,2-.27,6.83,6.83,0,0,0,3.68,1.23c2,0,3-.84,3-2.15s-1.14-1.83-2.81-2.54l-2.51-1.06c-1.9-.79-3.8-2.31-3.8-5,0-3.06,2.69-5.42,6.49-5.42A8.55,8.55,0,0,1,123.66,48a1.52,1.52,0,0,1,.34,2.23l-.06.08a1.53,1.53,0,0,1-2,.33,5.68,5.68,0,0,0-2.89-.77c-1.65,0-2.71.73-2.71,2s1.34,1.82,2.94,2.45l2.46,1c2.28.94,3.77,2.39,3.77,5.1,0,3.06-2.56,5.67-6.89,5.67a10.12,10.12,0,0,1-5.51-1.66A1.54,1.54,0,0,1,112.78,62.19Z"/><path class="cls-2" d="M130.47,50.12h-2.23a1.52,1.52,0,0,1-1.52-1.52v-.07A1.52,1.52,0,0,1,128.24,47h11.3a1.53,1.53,0,0,1,1.53,1.52v.07a1.53,1.53,0,0,1-1.53,1.52h-2.28a1.52,1.52,0,0,0-1.52,1.52v12.6a1.52,1.52,0,0,1-1.52,1.52h-.71A1.52,1.52,0,0,1,132,64.24V51.64A1.52,1.52,0,0,0,130.47,50.12Z"/><circle class="cls-2" cx="28.91" cy="143.09" r="6.19"/><rect class="cls-2" x="123.74" y="132.44" width="22.5" height="21.31" rx="2.43"/><rect class="cls-2" x="98.31" y="132.44" width="6.13" height="21.31" rx="2.46"/><rect class="cls-2" x="106.03" y="132.44" width="6.13" height="21.31" rx="2.46"/><rect class="cls-2" x="113.75" y="132.44" width="6.13" height="21.31" rx="2.46"/><rect class="cls-2" x="56" y="125.07" width="6.13" height="21.31" rx="2.46" transform="translate(194.79 76.66) rotate(90)"/><rect class="cls-2" x="56" y="132.44" width="6.13" height="21.31" rx="2.46" transform="translate(202.16 84.03) rotate(90)"/><rect class="cls-2" x="56" y="139.81" width="6.13" height="21.31" rx="2.46" transform="translate(209.53 91.39) rotate(90)"/><rect class="cls-2" x="73.58" y="132.44" width="6.13" height="21.31" rx="2.46"/><rect class="cls-2" x="80.95" y="140.03" width="6.13" height="6.13" rx="1.32"/><rect class="cls-2" x="80.95" y="132.66" width="6.13" height="6.13" rx="1.32"/><rect class="cls-2" x="88.32" y="132.44" width="6.13" height="21.31" rx="2.46"/><circle class="cls-2" cx="28.91" cy="180.99" r="6.19"/><path class="cls-2" d="M69,174.8H50.9a2.49,2.49,0,0,0-2.49,2.49v16.86a2.5,2.5,0,0,0,2.49,2.49H69a2.5,2.5,0,0,0,2.49-2.49V177.29A2.49,2.49,0,0,0,69,174.8Zm-2.12,16a1.5,1.5,0,0,1-1.5,1.5H54.52a1.5,1.5,0,0,1-1.49-1.5V180.66a1.49,1.49,0,0,1,1.49-1.49H65.37a1.5,1.5,0,0,1,1.5,1.49Z"/><rect class="cls-2" x="82.76" y="167.25" width="6.28" height="21.84" rx="2.52" transform="translate(264.06 92.27) rotate(90)"/><rect class="cls-2" x="82.76" y="182.58" width="6.28" height="6.28" rx="1.35" transform="translate(271.62 99.82) rotate(90)"/><rect class="cls-2" x="82.76" y="182.35" width="6.28" height="21.84" rx="2.52" transform="translate(279.17 107.37) rotate(90)"/><rect class="cls-2" x="115.42" y="174.8" width="6.28" height="21.84" rx="2.52" transform="translate(237.12 371.43) rotate(-180)"/><rect class="cls-2" x="107.87" y="182.58" width="6.28" height="6.28" rx="1.35" transform="translate(222.02 371.43) rotate(-180)"/><rect class="cls-2" x="107.87" y="190.13" width="6.28" height="6.28" rx="1.35" transform="translate(222.02 386.54) rotate(-180)"/><rect class="cls-2" x="100.32" y="174.8" width="6.28" height="21.84" rx="2.52" transform="translate(206.91 371.43) rotate(-180)"/><path class="cls-2" d="M141.94,196.64H126.85a1.69,1.69,0,0,1-1.65-1.72V180a1.64,1.64,0,0,1,2.78-1.25l15.1,14.9A1.73,1.73,0,0,1,141.94,196.64Z"/><path class="cls-2" d="M129.84,174.8h15.09a1.68,1.68,0,0,1,1.65,1.72v14.89a1.64,1.64,0,0,1-2.78,1.25l-15.09-14.89A1.73,1.73,0,0,1,129.84,174.8Z"/><circle class="cls-2" cx="28.91" cy="100.42" r="6.19"/><rect class="cls-2" x="73.89" y="89.45" width="6.31" height="21.93" rx="2.54"/><rect class="cls-2" x="81.84" y="89.45" width="6.31" height="21.93" rx="2.54"/><rect class="cls-2" x="89.79" y="89.45" width="6.31" height="21.93" rx="2.54"/><rect class="cls-2" x="132.46" y="81.87" width="6.31" height="21.93" rx="2.54" transform="translate(228.45 -42.78) rotate(90)"/><rect class="cls-2" x="132.46" y="89.45" width="6.31" height="21.93" rx="2.54" transform="translate(236.04 -35.2) rotate(90)"/><rect class="cls-2" x="132.46" y="97.04" width="6.31" height="21.93" rx="2.54" transform="translate(243.62 -27.61) rotate(90)"/><path class="cls-2" d="M116.45,111.39H101.29a1.7,1.7,0,0,1-1.66-1.73v-15a1.65,1.65,0,0,1,2.8-1.26l15.16,15A1.74,1.74,0,0,1,116.45,111.39Z"/><path class="cls-2" d="M104.29,89.45h15.16a1.7,1.7,0,0,1,1.66,1.73v15a1.65,1.65,0,0,1-2.79,1.26l-15.17-15A1.74,1.74,0,0,1,104.29,89.45Z"/><path class="cls-2" d="M48.41,106.5V91.34a1.7,1.7,0,0,1,1.73-1.66h15a1.65,1.65,0,0,1,1.26,2.8l-15,15.16A1.74,1.74,0,0,1,48.41,106.5Z"/><path class="cls-2" d="M70.35,94.34V109.5a1.7,1.7,0,0,1-1.73,1.66h-15a1.65,1.65,0,0,1-1.26-2.8l15-15.16A1.74,1.74,0,0,1,70.35,94.34Z"/><rect class="cls-3" x="198.52" y="185.81" width="125.34" height="97.07" rx="12" transform="translate(-35.63 47.17) rotate(-9.66)"/><path class="cls-3" d="M195.83,311.25l-29-24.81a3.9,3.9,0,0,1-.42-5.49l.82-1a18.73,18.73,0,0,1,26.42-2.05l6.43,5.5a18.75,18.75,0,0,1,2.05,26.43l-.83,1A3.89,3.89,0,0,1,195.83,311.25Z"/><path class="cls-3" d="M318.56,312.19H280.4a3.89,3.89,0,0,1-3.89-3.9V307a18.74,18.74,0,0,1,18.74-18.74h8.46A18.74,18.74,0,0,1,322.45,307v1.26A3.89,3.89,0,0,1,318.56,312.19Z"/><path class="cls-4" d="M206.77,199.23c14.38,9.6,34.09,18.49,52.84,14.26,18.58-4.2,32.45-20.52,41.35-35.17"/><circle class="cls-5" cx="234.17" cy="140.73" r="75.12"/><path class="cls-2" d="M164,167.43l138.91-57a74.87,74.87,0,0,0-16-23.25L159.05,139.64A74.93,74.93,0,0,0,164,167.43Z"/><circle class="cls-1" cx="220.35" cy="177.29" r="4.32"/><circle class="cls-1" cx="269.69" cy="157.06" r="4.32"/><circle class="cls-6" cx="247.79" cy="173.93" r="3.84"/><circle class="cls-7" cx="191.93" cy="117.31" r="6.83"/><circle class="cls-4" cx="261.64" cy="236.99" r="5.73"/><circle class="cls-4" cx="265.14" cy="257.59" r="5.73"/><rect class="cls-8" x="352.58" y="6.96" width="3.7" height="26.67"/><rect class="cls-3" x="309.31" y="51.22" width="90.24" height="22.49" rx="11.25"/><circle class="cls-9" cx="354.43" cy="62.47" r="35.51"/><circle class="cls-10" cx="354.43" cy="66.87" r="4"/><circle class="cls-8" cx="335.94" cy="72.43" r="8.06"/><circle class="cls-8" cx="372.92" cy="72.43" r="8.06"/><circle class="cls-1" cx="343.37" cy="62.66" r="2.83"/><circle class="cls-1" cx="365.48" cy="62.66" r="2.83"/><ellipse class="cls-11" cx="354.43" cy="9.04" rx="25.7" ry="7.7"/><ellipse class="cls-10" cx="354.43" cy="7.7" rx="25.7" ry="7.7"/><ellipse class="cls-11" cx="354.43" cy="7.7" rx="2.02" ry="0.61"/><rect class="cls-12" x="352.21" y="76.63" width="5.71" height="4.44"/><rect class="cls-13" x="303.47" y="75.87" width="50.95" height="6"/><polygon class="cls-2" points="317.52 75.87 320.13 81.87 322.53 81.87 319.92 75.87 317.52 75.87"/><polygon class="cls-2" points="326.32 75.87 328.93 81.87 331.33 81.87 328.72 75.87 326.32 75.87"/><polygon class="cls-2" points="335.13 75.87 337.73 81.87 340.13 81.87 337.52 75.87 335.13 75.87"/><line class="cls-2" x1="339.92" y1="81.87" x2="337.32" y2="75.87"/><polygon class="cls-2" points="343.62 75.87 346.22 81.87 348.62 81.87 346.01 75.87 343.62 75.87"/><circle class="cls-9" cx="360.74" cy="79.26" r="4.74"/><rect class="cls-2" x="300.59" y="26.95" width="5.78" height="12.45" transform="translate(14.22 130.8) rotate(-24.89)"/><rect class="cls-3" x="293.93" y="53.6" width="5.78" height="12.45" transform="translate(129.24 -192.36) rotate(45)"/><rect class="cls-5" x="387.05" y="20.73" width="5.78" height="12.45" transform="translate(133.27 -267.84) rotate(45)"/><rect class="cls-5" x="321.31" y="97.48" width="5.78" height="6.44" transform="translate(166.16 -199.75) rotate(45)"/><rect class="cls-3" x="396.66" y="40.37" width="5.78" height="6.44" transform="translate(-2.32 49.92) rotate(-7.13)"/><rect class="cls-10" x="410.91" y="61.16" width="5.78" height="6.44" transform="translate(-4.79 51.85) rotate(-7.13)"/><rect class="cls-10" x="317.14" y="17.08" width="5.78" height="6.44" transform="translate(-0.04 39.87) rotate(-7.13)"/><rect class="cls-2" x="399.87" y="79.4" width="5.78" height="12.45" transform="translate(4.98 -20.78) rotate(2.97)"/></g></g></svg>