<svg xmlns="http://www.w3.org/2000/svg" viewBox="0 0 627.92 337.91"><defs><style>.cls-1{fill:#d9e0e2;}.cls-2{fill:#a5b1b5;}.cls-3{fill:#343a40;}.cls-4{fill:#7b8487;}.cls-5{fill:#f2f2f2;}.cls-6{fill:#fe9898;}.cls-7{fill:#6fa7ff;}.cls-8{fill:#61c997;}.cls-9{fill:#fec9c9;}.cls-10{fill:#fe5454;}.cls-11{fill:#397eff;}.cls-12{fill:#b0d0ff;}</style></defs><g id="레이어_2" data-name="레이어 2"><g id="레이어_1-2" data-name="레이어 1"><g id="그룹_491" data-name="그룹 491"><g id="그룹_479" data-name="그룹 479"><g id="그룹_477" data-name="그룹 477"><path id="패스_566" data-name="패스 566" class="cls-1" d="M553.72,279.29H492.35v-33.6h61.37A14.25,14.25,0,0,0,568,231.45V143.28h33.6v88.17A47.89,47.89,0,0,1,553.72,279.29Z"/></g><path id="패스_567" data-name="패스 567" class="cls-2" d="M568,205.13a42,42,0,0,0,33.6,1V143.28H568Z"/><rect id="사각형_1280" data-name="사각형 1280" class="cls-3" y="166.69" width="528.67" height="171.22" rx="27.69"/><rect id="사각형_1281" data-name="사각형 1281" class="cls-2" x="21.73" y="182.87" width="485.21" height="138.85" rx="20.21"/><rect id="사각형_1282" data-name="사각형 1282" class="cls-2" x="21.73" y="182.87" width="485.21" height="138.85" rx="20.21"/><rect id="사각형_1283" data-name="사각형 1283" class="cls-4" x="27.48" y="188.26" width="476.05" height="127.42" rx="13.45"/><rect id="사각형_1284" data-name="사각형 1284" class="cls-5" x="30.27" y="192.16" width="468.13" height="120.28" rx="8.8"/><rect id="사각형_1285" data-name="사각형 1285" class="cls-3" x="167.57" y="171.36" width="22.7" height="161.87"/><rect id="사각형_1286" data-name="사각형 1286" class="cls-3" x="338.4" y="171.36" width="22.7" height="161.87"/><path id="패스_568" data-name="패스 568" class="cls-6" d="M309.83,218.07a17,17,0,0,0-16.95-16.94H235a16.17,16.17,0,1,0,0,32.33h13.36v57.71a12.3,12.3,0,0,0,12.29,12.3h19.65v-70h29.52Z"/><path id="패스_569" data-name="패스 569" class="cls-7" d="M474.43,214.73a13.39,13.39,0,0,0-13-13.75H418.76c-12,0-21.67,10.25-21.67,22.9v24.61h0v44.43A10.41,10.41,0,0,0,407.2,303.6h21V267.55h46.25ZM448.11,240.3H436.06a5.81,5.81,0,0,1-5.63-6h0a5.8,5.8,0,0,1,5.63-6h5.87a6.36,6.36,0,0,1,6.18,6.53Z"/><path id="패스_570" data-name="패스 570" class="cls-8" d="M130.62,241V214a11.75,11.75,0,0,0-11.16-12.28H76.79c-11.18,0-20.25,10-20.25,22.27v52.42c0,14.6,10.77,26.44,24,26.44h50V263.57a12.8,12.8,0,0,1,0-22.54Zm-45.46-7.44a5.69,5.69,0,0,1,5.41-6H96.2a6.25,6.25,0,0,1,6,6.53v5.38H90.57a5.7,5.7,0,0,1-5.41-6Zm17,45.88H90.57a6,6,0,0,1,0-11.91H96.2a6.25,6.25,0,0,1,6,6.53Z"/><g id="그룹_478" data-name="그룹 478"><circle id="타원_242" data-name="타원 242" class="cls-6" cx="585.91" cy="152.82" r="42"/><circle id="타원_243" data-name="타원 243" class="cls-9" cx="575.19" cy="137.41" r="7.68"/></g></g><g id="그룹_483" data-name="그룹 483"><rect id="사각형_1287" data-name="사각형 1287" class="cls-2" x="237.93" y="50.58" width="30.6" height="4.25" transform="translate(113.28 270.24) rotate(-69)"/><g id="그룹_482" data-name="그룹 482"><path id="사각형_1288" data-name="사각형 1288" class="cls-7" d="M204.22,71.92,276.8,99.77a12.91,12.91,0,0,1,7.42,16.68h0a12.9,12.9,0,0,1-16.67,7.42L195,96a12.9,12.9,0,0,1-7.42-16.67h0A12.9,12.9,0,0,1,204.22,71.92Z"/><circle id="타원_244" data-name="타원 244" class="cls-1" cx="235.89" cy="97.89" r="40.76"/><circle id="타원_245" data-name="타원 245" class="cls-6" cx="234.08" cy="102.61" r="4.59"/><g id="그룹_480" data-name="그룹 480"><circle id="타원_246" data-name="타원 246" class="cls-2" cx="211.98" cy="100.96" r="9.25"/><circle id="타원_247" data-name="타원 247" class="cls-2" cx="251.6" cy="116.17" r="9.25"/></g><g id="그룹_481" data-name="그룹 481"><circle id="타원_248" data-name="타원 248" class="cls-3" cx="223.96" cy="93.55" r="3.25"/><circle id="타원_249" data-name="타원 249" class="cls-3" cx="247.65" cy="102.65" r="3.25"/></g></g><ellipse id="타원_250" data-name="타원 250" class="cls-10" cx="257.86" cy="40.65" rx="8.84" ry="29.5" transform="translate(127.51 266.82) rotate(-69)"/><ellipse id="타원_251" data-name="타원 251" class="cls-6" cx="258.41" cy="39.22" rx="8.84" ry="29.5" transform="translate(129.2 266.41) rotate(-69)"/><ellipse id="타원_252" data-name="타원 252" class="cls-10" cx="258.41" cy="39.22" rx="0.7" ry="2.32" transform="translate(129.2 266.41) rotate(-69)"/></g><g id="그룹_490" data-name="그룹 490"><g id="그룹_484" data-name="그룹 484"><rect id="사각형_1289" data-name="사각형 1289" class="cls-7" x="355.85" y="88.2" width="74.77" height="57.91" rx="10.17" transform="translate(-16.98 126.06) rotate(-17.83)"/><path id="패스_571" data-name="패스 571" class="cls-11" d="M350.89,107.53,422,84.64a7.15,7.15,0,0,0-8.89-4.3L355.6,98.85A7.15,7.15,0,0,0,350.89,107.53Z"/><circle id="타원_253" data-name="타원 253" class="cls-11" cx="389.91" cy="106.81" r="3.42"/><circle id="타원_254" data-name="타원 254" class="cls-11" cx="393.73" cy="118.68" r="3.42"/><circle id="타원_255" data-name="타원 255" class="cls-11" cx="397.55" cy="130.55" r="3.42"/></g><g id="그룹_486" data-name="그룹 486"><g id="그룹_485" data-name="그룹 485"><path id="패스_572" data-name="패스 572" class="cls-7" d="M385.24,171.18H362.48a2.32,2.32,0,0,1-2.32-2.32v-.76a11.18,11.18,0,0,1,11.17-11.18h5a11.18,11.18,0,0,1,11.18,11.18v.76A2.31,2.31,0,0,1,385.24,171.18Z"/><path id="패스_573" data-name="패스 573" class="cls-7" d="M451.12,143.11l-17.41,14.66a2.32,2.32,0,0,1-3.27-.28l-.49-.58a11.18,11.18,0,0,1,1.36-15.75h0l3.86-3.25a11.18,11.18,0,0,1,15.75,1.35h0l.49.59A2.31,2.31,0,0,1,451.12,143.11Z"/></g></g><g id="그룹_489" data-name="그룹 489"><rect id="사각형_1290" data-name="사각형 1290" class="cls-7" x="338.09" y="1.65" width="78.39" height="88.27" rx="13.65" transform="translate(242.04 400.96) rotate(-76.07)"/><g id="그룹_488" data-name="그룹 488"><g id="그룹_487" data-name="그룹 487"><circle id="타원_256" data-name="타원 256" class="cls-3" cx="356.91" cy="40.04" r="2.57"/><circle id="타원_257" data-name="타원 257" class="cls-3" cx="387.78" cy="47.7" r="2.57"/></g><circle id="타원_258" data-name="타원 258" class="cls-11" cx="371.29" cy="48.09" r="2.29"/></g><path id="패스_574" data-name="패스 574" class="cls-12" d="M366.06,2.62l.66,2.47a5.36,5.36,0,0,0,4,2.88l30.09,7.46a5.33,5.33,0,0,0,4.86-.69l1.74-1.87Z"/></g></g></g></g></g></svg>