<svg xmlns="http://www.w3.org/2000/svg" viewBox="0 0 381.54 404.96"><defs><style>.cls-1{fill:#2cc997;}.cls-2{fill:#18b381;}.cls-3{fill:#59efc2;}.cls-4{fill:#fff;}.cls-5{fill:#d9e0e2;}.cls-6{fill:#a5b1b5;}.cls-7{fill:#6fa7ff;}.cls-8{fill:#fe9898;}.cls-9{fill:#343a40;}.cls-10{fill:#fe5454;}.cls-11{fill:#397eff;}.cls-12,.cls-13{fill:none;stroke-miterlimit:10;}.cls-12{stroke:#2cc997;stroke-width:2px;}.cls-13{stroke:#fe9898;stroke-linecap:round;stroke-width:4px;}</style></defs><g id="레이어_2" data-name="레이어 2"><g id="레이어_1-2" data-name="레이어 1"><rect class="cls-1" x="175.91" y="262.69" width="141.11" height="109.28" rx="13.5"/><path class="cls-2" d="M189.41,262.69a13.46,13.46,0,0,0-7,2,36.16,36.16,0,0,0-.88,7.9,23.2,23.2,0,0,0,3.67,12.68,73.34,73.34,0,0,0,122,1.41,24,24,0,0,0,4.23-13.55v-.54a36.78,36.78,0,0,0-.87-7.9,13.49,13.49,0,0,0-7-2Z"/><circle class="cls-1" cx="252.92" cy="225.17" r="84.57"/><circle class="cls-2" cx="219.91" cy="274.69" r="4.32"/><circle class="cls-3" cx="241.24" cy="183.62" r="7.69"/><path class="cls-1" d="M211.6,378.06h9.52a21.1,21.1,0,0,1,21.1,21.1v1.42a4.39,4.39,0,0,1-4.39,4.39h-43a4.39,4.39,0,0,1-4.39-4.39v-1.42a21.1,21.1,0,0,1,21.1-21.1Z"/><path class="cls-1" d="M271.8,378.06h9.52a21.1,21.1,0,0,1,21.1,21.1v1.42A4.39,4.39,0,0,1,298,405h-43a4.39,4.39,0,0,1-4.39-4.39v-1.42a21.1,21.1,0,0,1,21.1-21.1Z"/><circle class="cls-2" cx="246.46" cy="337.42" r="6.45"/><path class="cls-4" d="M238.83,287.1a1.44,1.44,0,0,1-1.38-1.05l-1.31-4.65a1.42,1.42,0,0,1,.16-1.14,1.45,1.45,0,0,1,.95-.66l5-1a1.44,1.44,0,1,1,.55,2.82l-3.44.68.89,3.15a1.44,1.44,0,0,1-1,1.78A1.83,1.83,0,0,1,238.83,287.1Z"/><path class="cls-4" d="M201.72,265.07a1.45,1.45,0,0,0,1.6.69L208,264.6a1.46,1.46,0,0,0,.92-.71,1.44,1.44,0,0,0,.1-1.15l-1.6-4.8a1.44,1.44,0,0,0-2.73.91l1.11,3.33-3.18.78a1.45,1.45,0,0,0-1,1.75A1.42,1.42,0,0,0,201.72,265.07Z"/><rect class="cls-5" x="67.05" y="152.24" width="7.29" height="32.31"/><rect class="cls-6" x="67.05" y="158.96" width="7.29" height="7.57"/><rect class="cls-6" x="67.05" y="168.93" width="7.29" height="7.57"/><rect class="cls-6" x="63.4" y="178.9" width="14.58" height="7.57"/><rect class="cls-6" x="68.03" y="32.15" width="5.33" height="38.38"/><rect class="cls-7" x="5.75" y="95.86" width="129.89" height="32.37" rx="16.19"/><circle class="cls-5" cx="70.69" cy="112.05" r="51.12"/><circle class="cls-8" cx="70.69" cy="118.38" r="5.75"/><circle class="cls-6" cx="44.08" cy="126.39" r="11.6"/><circle class="cls-6" cx="97.31" cy="126.39" r="11.6"/><circle class="cls-9" cx="54.78" cy="112.33" r="4.08"/><circle class="cls-9" cx="86.6" cy="112.33" r="4.08"/><ellipse class="cls-10" cx="70.69" cy="35.14" rx="37" ry="11.09"/><ellipse class="cls-8" cx="70.69" cy="33.22" rx="37" ry="11.09"/><ellipse class="cls-10" cx="70.69" cy="33.22" rx="2.91" ry="0.87"/><rect class="cls-4" y="176.87" width="141.38" height="160.55"/><path class="cls-9" d="M57.92,172.18H83.47a2.69,2.69,0,0,1,2.69,2.69v4.45A7.15,7.15,0,0,1,79,186.47H62.37a7.15,7.15,0,0,1-7.15-7.15v-4.45A2.69,2.69,0,0,1,57.92,172.18Z"/><rect class="cls-11" x="37.93" y="252.77" width="60.1" height="56.97" rx="8.21"/><circle class="cls-7" cx="91.93" cy="242.88" r="31.48"/><path class="cls-12" d="M26.23,252.77V227.94a14.18,14.18,0,0,1,14.18-14.18H49"/><polygon class="cls-1" points="47.77 218.07 55.23 213.76 47.77 209.46 47.77 218.07"/><path class="cls-13" d="M156.13,193.08V149.65a24.81,24.81,0,0,1,24.81-24.82h13.55"/><polygon class="cls-8" points="191.97 133.44 206.88 124.83 191.97 116.22 191.97 133.44"/><path class="cls-9" d="M74.92,249.67a2.54,2.54,0,0,1-.77-3.5.71.71,0,0,1,1-.22.72.72,0,0,1,.22,1,1.1,1.1,0,0,0,1.85,1.18.72.72,0,0,1,1-.23.74.74,0,0,1,.22,1A2.54,2.54,0,0,1,74.92,249.67Z"/><path class="cls-9" d="M94,261.79a2.53,2.53,0,0,1-.78-3.49.72.72,0,0,1,1.22.77,1.09,1.09,0,1,0,1.84,1.17.74.74,0,0,1,1-.22.72.72,0,0,1,.22,1A2.54,2.54,0,0,1,94,261.79Z"/><path class="cls-4" d="M349.23,184a8.21,8.21,0,0,1,7.41,14.65c-4,2-14.06-2.09-14.06-2.09S345.26,186,349.23,184Z"/><path class="cls-4" d="M339.55,164.89A8.21,8.21,0,0,1,347,179.55c-4,2-14.06-2.09-14.06-2.09S335.58,166.9,339.55,164.89Z"/><path class="cls-4" d="M329.87,145.77a8.21,8.21,0,0,1,7.42,14.65c-4,2-14.07-2.08-14.07-2.08S325.9,147.78,329.87,145.77Z"/><path class="cls-4" d="M369.75,161.51a8.21,8.21,0,0,1,7.41,14.65c-4,2-14.06-2.08-14.06-2.08S365.78,163.52,369.75,161.51Z"/><path class="cls-4" d="M360.07,142.39A8.21,8.21,0,0,1,367.48,157c-4,2-14.06-2.08-14.06-2.08S356.1,144.4,360.07,142.39Z"/><path class="cls-4" d="M217.1,95.52A51.18,51.18,0,1,0,143.63,69.3l-4.29,7.45a4.57,4.57,0,0,0,3.95,6.85h8.6A51.18,51.18,0,0,0,217.1,95.52Z"/><circle class="cls-4" cx="53.62" cy="81.54" r="2.92"/><path class="cls-9" d="M170.24,36.78V29.06L164,17h5.85l3.53,7.2h.08l3.47-7.2H182l-6.2,12v7.72Z"/><path class="cls-9" d="M191.07,37.05a7.81,7.81,0,0,1-5.74-2,7.6,7.6,0,0,1-2-5.64v-.35a7.44,7.44,0,0,1,2.15-5.73,9.11,9.11,0,0,1,11.32-.06,7.5,7.5,0,0,1,2,5.64v.35a7.48,7.48,0,0,1-2.15,5.76A7.87,7.87,0,0,1,191.07,37.05Zm0-3.44a2.19,2.19,0,0,0,1.91-.92,5.75,5.75,0,0,0,.65-3.16V29a5.88,5.88,0,0,0-.67-3.37,2.31,2.31,0,0,0-2-.86,2.22,2.22,0,0,0-1.94.92,5.76,5.76,0,0,0-.64,3.16v.56a5.79,5.79,0,0,0,.67,3.32A2.33,2.33,0,0,0,191.1,33.61Z"/><path class="cls-9" d="M205.82,37.05c-3.08,0-4.61-1.46-4.61-4.38v-11h5v10a1.59,1.59,0,0,0,.43,1.28,2.14,2.14,0,0,0,1.42.37,6.19,6.19,0,0,0,2.29-.53V21.65h5V36.78h-4.41l-.32-1.32h-.15A7.39,7.39,0,0,1,205.82,37.05Z"/><path class="cls-9" d="M172.73,60.27c-3,0-5.23-.76-6.76-2.29s-2.3-3.75-2.3-6.7v-.42c0-3,.83-5.28,2.48-6.84A9.47,9.47,0,0,1,173,41.66a11,11,0,0,1,5,.91v4.29a10.93,10.93,0,0,0-3.94-.74A4.31,4.31,0,0,0,171,47.19a4.22,4.22,0,0,0-1.13,3.25V51a5.43,5.43,0,0,0,1,3.68,4.19,4.19,0,0,0,3.27,1.13,11.75,11.75,0,0,0,4-.77v4A9.87,9.87,0,0,1,172.73,60.27Z"/><path class="cls-9" d="M185.9,60.27A6,6,0,0,1,181.84,59a4.72,4.72,0,0,1-1.52-3.8A4.56,4.56,0,0,1,182,51.26a10.35,10.35,0,0,1,4.82-1.65l3.27-.49v-.73a2,2,0,0,0-.73-1.85,5.74,5.74,0,0,0-2.75-.45,21.32,21.32,0,0,0-4.74.52v-3.9a19.38,19.38,0,0,1,7-1.05A9.25,9.25,0,0,1,194.17,43,4.8,4.8,0,0,1,196,47.17V60h-4.92l-.41-1.39h-.18Q189.28,60.27,185.9,60.27Zm2-3.73a2.8,2.8,0,0,0,2.15-.73V52.32l-2.08.21a2.4,2.4,0,0,0-1.52.58,2,2,0,0,0-.47,1.44C186,55.88,186.64,56.54,187.92,56.54Z"/><path class="cls-9" d="M199.62,59.92V42h5.71v1.57h.18a8.94,8.94,0,0,1,5.71-1.89q5.29,0,5.29,4.92V59.92h-5.92V48.21a1.93,1.93,0,0,0-.5-1.51,2.74,2.74,0,0,0-1.76-.44,7.24,7.24,0,0,0-2.75.6V59.92Z"/><path class="cls-9" d="M169.87,84.9a5.25,5.25,0,0,1-4-1.74,7.55,7.55,0,0,1-1.6-5.27v-.31c0-2.56.58-4.43,1.74-5.63a6.25,6.25,0,0,1,4.72-1.79,6,6,0,0,1,3,.6V64.88h4.67V84.62h-4l-.3-1.07h-.16A5.6,5.6,0,0,1,169.87,84.9Zm1.79-3.43a3.3,3.3,0,0,0,2-.63v-7a3.5,3.5,0,0,0-2-.5,2.35,2.35,0,0,0-2,.87,5.21,5.21,0,0,0-.66,3v.41a5,5,0,0,0,.65,3A2.33,2.33,0,0,0,171.66,81.47Z"/><path class="cls-9" d="M188,84.9a7.37,7.37,0,0,1-5.4-1.85,7.14,7.14,0,0,1-1.86-5.3v-.33a7,7,0,0,1,2-5.39,8.6,8.6,0,0,1,10.65,0,7.08,7.08,0,0,1,1.86,5.3v.33a7,7,0,0,1-2,5.41A7.42,7.42,0,0,1,188,84.9Zm0-3.23a2,2,0,0,0,1.79-.87,5.35,5.35,0,0,0,.61-3v-.5a5.65,5.65,0,0,0-.62-3.16,2.19,2.19,0,0,0-1.84-.81,2.08,2.08,0,0,0-1.82.87,5.44,5.44,0,0,0-.61,3v.52a5.36,5.36,0,0,0,.64,3.12A2.19,2.19,0,0,0,188,81.67Z"/><path class="cls-9" d="M202.07,68.67V65.08h4.77v3.59Zm0,15.84V70.27h4.73V84.51Z"/><path class="cls-9" d="M215.29,84.71a5.35,5.35,0,0,1-3.4-.92,3.82,3.82,0,0,1-1.13-3.14v-7.1H209V70.29h1.76V66.93h4.72v3.36h2.87v3.26h-2.87V80a1.27,1.27,0,0,0,.35,1,2,2,0,0,0,1.2.27,6.9,6.9,0,0,0,1.41-.13v3A7.4,7.4,0,0,1,215.29,84.71Z"/></g></g></svg>