<svg xmlns="http://www.w3.org/2000/svg" viewBox="0 0 261.05 203.51"><defs><style>.cls-1{fill:#fff;}.cls-2{fill:#343a40;}.cls-3{fill:#2c7c56;}.cls-4{fill:#2cc997;}.cls-5{fill:#15a672;}</style></defs><g id="레이어_2" data-name="레이어 2"><g id="레이어_1-2" data-name="레이어 1"><rect class="cls-1" x="115" y="-26.21" width="40.14" height="264.89" rx="20.07" transform="translate(301.49 63.41) rotate(127.38)"/><rect class="cls-1" x="115" y="-26.21" width="40.14" height="264.89" rx="20.07" transform="translate(137.49 -65.59) rotate(52.62)"/><path class="cls-1" d="M27.77,72.74h47a0,0,0,0,1,0,0v55.55a0,0,0,0,1,0,0h-47A27.77,27.77,0,0,1,0,100.52v0A27.77,27.77,0,0,1,27.77,72.74Z"/><circle class="cls-2" cx="17.03" cy="95.28" r="4.37"/><path class="cls-2" d="M17.59,103c-5.77,5.78-14.27,4-17,3.24.19.89.41,1.76.68,2.62a25.73,25.73,0,0,0,5.57.64,17.08,17.08,0,0,0,12.42-4.83A1.18,1.18,0,1,0,17.59,103Z"/><path class="cls-1" d="M259.72,97.41a4.31,4.31,0,0,1,0,6.22c-6,5.67-19,17.14-27.45,17.14a20.26,20.26,0,0,1,0-40.51C240.69,80.26,253.76,91.73,259.72,97.41Z"/><circle class="cls-3" cx="136.34" cy="101.76" r="101.76"/><circle class="cls-4" cx="136.34" cy="101.76" r="78.72"/><path class="cls-5" d="M211,76.55q-1.23-3.6-2.77-7H171.8V31.46a75.36,75.36,0,0,0-7-3.14V69.51H107.93V28.32a76.73,76.73,0,0,0-7.05,3.14V69.51H64.51c-1,2.29-2,4.64-2.77,7h39.14v56.83H64.24a78.49,78.49,0,0,0,3.52,7.05h33.12v31.62a76.73,76.73,0,0,0,7.05,3.14V140.43h56.83v34.76a75.36,75.36,0,0,0,7-3.14V140.43h33.13c1.28-2.28,2.46-4.64,3.52-7.05H171.8V76.55Zm-46.19,56.83H107.93V76.55h56.83Z"/></g></g></svg>