<svg xmlns="http://www.w3.org/2000/svg" viewBox="0 0 438.86 137.8"><defs><style>.cls-1{fill:#343a40;stroke:#343a40;stroke-miterlimit:10;}.cls-2{fill:#61c997;}.cls-3{fill:#6fa7ff;}</style></defs><g id="레이어_2" data-name="레이어 2"><g id="레이어_1-2" data-name="레이어 1"><path class="cls-1" d="M339.27,20.67A20.17,20.17,0,0,0,319.1.5H250.19a19.25,19.25,0,0,0,0,38.49H266.1v68.72a14.63,14.63,0,0,0,14.63,14.63h23.39V39h35.15Z"/><path class="cls-1" d="M438.36,16.87c0-9-6.94-16.37-15.49-16.37h-50.8c-14.25,0-25.8,12.21-25.8,27.26v29.3h0V110c0,7,5.39,12.72,12,12.72h25V79.76h55.07ZM407,47.32H392.68A6.92,6.92,0,0,1,386,40.23h0a6.92,6.92,0,0,1,6.72-7.1h7A7.58,7.58,0,0,1,407,40.91Z"/><path class="cls-1" d="M224,48V15.34c0-8.2-6-14.84-13.49-14.84H158.9c-13.51,0-24.46,12.05-24.46,26.91V90.75c0,17.64,13,32,29.05,32H224V75.22a15,15,0,0,0-8.14-13.62A15,15,0,0,0,224,48ZM169,39c0-4,2.93-7.2,6.55-7.2h6.8c4,0,7.18,3.54,7.18,7.9v6.5h-14C171.94,46.2,169,43,169,39Zm20.53,55.44h-14c-3.62,0-6.55-3.22-6.55-7.2s2.93-7.2,6.55-7.2h6.8c4,0,7.18,3.53,7.18,7.89Z"/><path class="cls-2" d="M40.42.5h0A40.42,40.42,0,0,1,80.85,40.92V70.86A10.49,10.49,0,0,1,70.36,81.35H40.42A40.42,40.42,0,0,1,0,40.92v0A40.42,40.42,0,0,1,40.42.5Z"/><path class="cls-3" d="M68.72,44.36h12.9a32.58,32.58,0,0,1,32.58,32.58v45.48a0,0,0,0,1,0,0H68.72A32.58,32.58,0,0,1,36.14,89.84V76.94A32.58,32.58,0,0,1,68.72,44.36Z"/><path class="cls-3" d="M75.17,107.05H96.26a0,0,0,0,1,0,0V137.8a0,0,0,0,1,0,0H94A18.79,18.79,0,0,1,75.17,119v-12A0,0,0,0,1,75.17,107.05Z"/></g></g></svg>