<svg xmlns="http://www.w3.org/2000/svg" viewBox="0 0 201.33 201.93"><defs><style>.cls-1{fill:#a5b1b5;}</style></defs><g id="레이어_2" data-name="레이어 2"><g id="레이어_1-2" data-name="레이어 1"><path class="cls-1" d="M24,0H177.31a24,24,0,0,1,24,24V48a0,0,0,0,1,0,0H24A24,24,0,0,1,0,24v0A24,24,0,0,1,24,0Z"/><path class="cls-1" d="M24,76.94H177.31a24,24,0,0,1,24,24v24a0,0,0,0,1,0,0H24A24,24,0,0,1,0,101v0a24,24,0,0,1,24-24Z"/><path class="cls-1" d="M24,153.88H177.31a24,24,0,0,1,24,24v24a0,0,0,0,1,0,0H24a24,24,0,0,1-24-24v0a24,24,0,0,1,24-24Z"/></g></g></svg>