<svg xmlns="http://www.w3.org/2000/svg" viewBox="0 0 173.65 190.22"><defs><style>.cls-1{fill:#a5b1b5;}</style></defs><g id="레이어_2" data-name="레이어 2"><g id="레이어_1-2" data-name="레이어 1"><path class="cls-1" d="M86.82,154.1h0a18.06,18.06,0,0,1,18.06,18.06v18.06a0,0,0,0,1,0,0H86.82a18.06,18.06,0,0,1-18.06-18.06v0A18.06,18.06,0,0,1,86.82,154.1Z"/><path class="cls-1" d="M86.82,0h0A74.48,74.48,0,0,1,161.3,74.48v68.08a0,0,0,0,1,0,0h-149a0,0,0,0,1,0,0V74.48A74.48,74.48,0,0,1,86.82,0Z"/><path class="cls-1" d="M15.54,117.37H158.11a15.54,15.54,0,0,1,15.54,15.54v15.54a0,0,0,0,1,0,0H15.54A15.54,15.54,0,0,1,0,132.92v0a15.54,15.54,0,0,1,15.54-15.54Z"/></g></g></svg>